<?xml version="1.0" encoding="UTF-8"?>
<svg id="a" xmlns="http://www.w3.org/2000/svg" viewBox="0 0 200 200">
  <defs>
    <style>
      .b {
        fill: #000;
      }

      .b,
      .c {
        stroke-width: 0px;
      }

      .c {
        fill: #fff;
      }
    </style>
  </defs>
  <path class="b" d="M0,0h200v200H0V0ZM114,109.41c-.07,13.55,10.2,23.36,24.44,23.36,13.95,0,24.26-9.65,24.45-22.91.2-13.46-10.1-23.49-24.25-23.62-14.19-.13-24.58,9.64-24.64,23.17ZM81.61,131.2v-63.1h-13.5v63.1h13.5ZM107.42,131.18v-63.06h-13.31v63.06h13.31ZM42.23,87.67v43.6h13.41v-43.6h-13.41ZM138.47,76.42c5.1-.04,8.88-3.83,8.84-8.86-.04-5.06-3.8-8.72-8.95-8.7-5.07.02-8.93,3.84-8.91,8.81.02,4.89,4.03,8.78,9.02,8.75Z" />
</svg>