<?xml version="1.0" encoding="UTF-8"?>
<svg id="a" xmlns="http://www.w3.org/2000/svg" viewBox="0 0 200 200">
  <defs>
    <style>
      .b {
        fill: #000;
      }

      .b,
      .c {
        stroke-width: 0px;
      }

      .c {
        fill: #fff;
      }
    </style>
  </defs>
  <path class="b" d="M0,0h200v200H0V0ZM114,109.41c-.07,13.55,10.2,23.36,24.44,23.36,13.95,0,24.26-9.65,24.45-22.91.2-13.46-10.1-23.49-24.25-23.62-14.19-.13-24.58,9.64-24.64,23.17ZM81.61,131.2v-63.1h-13.5v63.1h13.5ZM107.42,131.18v-63.06h-13.31v63.06h13.31ZM42.23,87.67v43.6h13.41v-43.6h-13.41ZM138.47,76.42c5.1-.04,8.88-3.83,8.84-8.86-.04-5.06-3.8-8.72-8.95-8.7-5.07.02-8.93,3.84-8.91,8.81.02,4.89,4.03,8.78,9.02,8.75Z" />
  <path class="c" d="M114,109.41c.07-13.53,10.45-23.3,24.64-23.17,14.15.13,24.45,10.16,24.25,23.62-.2,13.26-10.5,22.92-24.45,22.91-14.24,0-24.51-9.81-24.44-23.36ZM148.96,109.49c0-6.22-4.53-11.1-10.41-11.22-5.82-.12-10.43,4.71-10.53,11.01-.1,6.56,4.56,11.62,10.57,11.48,5.88-.14,10.37-5.02,10.37-11.26Z" />
  <path class="c" d="M81.61,131.2h-13.5v-63.1h13.5v63.1Z" />
  <path class="c" d="M107.42,131.18h-13.31v-63.06h13.31v63.06Z" />
  <path class="c" d="M42.23,87.67h13.41v43.6h-13.41v-43.6Z" />
  <path class="c" d="M138.47,76.42c-4.99.03-9.01-3.85-9.02-8.75-.02-4.97,3.84-8.79,8.91-8.81,5.15-.02,8.91,3.63,8.95,8.7.04,5.03-3.74,8.82-8.84,8.86Z" />
  <path class="b" d="M148.96,109.49c0,6.25-4.49,11.13-10.37,11.26-6.01.14-10.67-4.92-10.57-11.48.1-6.3,4.72-11.13,10.53-11.01,5.88.12,10.41,5,10.41,11.22Z" />
</svg>